<?xml version="1.0" standalone="no"?>
<svg xmlns:xlink="http://www.w3.org/1999/xlink" id="wave" style="transform:rotate(0deg); transition: 0.3s" viewBox="0 0 1440 110" version="1.1" xmlns="http://www.w3.org/2000/svg"><defs><linearGradient id="sw-gradient-0" x1="0" x2="0" y1="1" y2="0"><stop stop-color="rgba(250, 235, 215, 1)" offset="0%"/><stop stop-color="rgba(250, 235, 215, 1)" offset="100%"/></linearGradient></defs><path style="transform:translate(0, 0px); opacity:1" fill="url(#sw-gradient-0)" d="M0,55L30,47.7C60,40,120,26,180,18.3C240,11,300,11,360,23.8C420,37,480,62,540,64.2C600,66,660,44,720,40.3C780,37,840,51,900,62.3C960,73,1020,81,1080,78.8C1140,77,1200,66,1260,62.3C1320,59,1380,62,1440,69.7C1500,77,1560,88,1620,77C1680,66,1740,33,1800,16.5C1860,0,1920,0,1980,1.8C2040,4,2100,7,2160,18.3C2220,29,2280,48,2340,51.3C2400,55,2460,44,2520,38.5C2580,33,2640,33,2700,40.3C2760,48,2820,62,2880,64.2C2940,66,3000,55,3060,58.7C3120,62,3180,81,3240,73.3C3300,66,3360,33,3420,27.5C3480,22,3540,44,3600,56.8C3660,70,3720,73,3780,69.7C3840,66,3900,55,3960,49.5C4020,44,4080,44,4140,40.3C4200,37,4260,29,4290,25.7L4320,22L4320,110L4290,110C4260,110,4200,110,4140,110C4080,110,4020,110,3960,110C3900,110,3840,110,3780,110C3720,110,3660,110,3600,110C3540,110,3480,110,3420,110C3360,110,3300,110,3240,110C3180,110,3120,110,3060,110C3000,110,2940,110,2880,110C2820,110,2760,110,2700,110C2640,110,2580,110,2520,110C2460,110,2400,110,2340,110C2280,110,2220,110,2160,110C2100,110,2040,110,1980,110C1920,110,1860,110,1800,110C1740,110,1680,110,1620,110C1560,110,1500,110,1440,110C1380,110,1320,110,1260,110C1200,110,1140,110,1080,110C1020,110,960,110,900,110C840,110,780,110,720,110C660,110,600,110,540,110C480,110,420,110,360,110C300,110,240,110,180,110C120,110,60,110,30,110L0,110Z"/></svg>