<?xml version="1.0" standalone="no"?>
<svg xmlns:xlink="http://www.w3.org/1999/xlink" id="wave" style="transform:rotate(0deg); transition: 0.3s" viewBox="0 0 1440 130" version="1.1" xmlns="http://www.w3.org/2000/svg"><defs><linearGradient id="sw-gradient-0" x1="0" x2="0" y1="1" y2="0"><stop stop-color="rgba(250, 235, 215, 1)" offset="0%"/><stop stop-color="rgba(250, 235, 215, 1)" offset="100%"/></linearGradient></defs><path style="transform:translate(0, 0px); opacity:1" fill="url(#sw-gradient-0)" d="M0,65L48,56.3C96,48,192,30,288,21.7C384,13,480,13,576,28.2C672,43,768,74,864,75.8C960,78,1056,52,1152,47.7C1248,43,1344,61,1440,73.7C1536,87,1632,95,1728,93.2C1824,91,1920,78,2016,73.7C2112,69,2208,74,2304,82.3C2400,91,2496,104,2592,91C2688,78,2784,39,2880,19.5C2976,0,3072,0,3168,2.2C3264,4,3360,9,3456,21.7C3552,35,3648,56,3744,60.7C3840,65,3936,52,4032,45.5C4128,39,4224,39,4320,47.7C4416,56,4512,74,4608,75.8C4704,78,4800,65,4896,69.3C4992,74,5088,95,5184,86.7C5280,78,5376,39,5472,32.5C5568,26,5664,52,5760,67.2C5856,82,5952,87,6048,82.3C6144,78,6240,65,6336,58.5C6432,52,6528,52,6624,47.7C6720,43,6816,35,6864,30.3L6912,26L6912,130L6864,130C6816,130,6720,130,6624,130C6528,130,6432,130,6336,130C6240,130,6144,130,6048,130C5952,130,5856,130,5760,130C5664,130,5568,130,5472,130C5376,130,5280,130,5184,130C5088,130,4992,130,4896,130C4800,130,4704,130,4608,130C4512,130,4416,130,4320,130C4224,130,4128,130,4032,130C3936,130,3840,130,3744,130C3648,130,3552,130,3456,130C3360,130,3264,130,3168,130C3072,130,2976,130,2880,130C2784,130,2688,130,2592,130C2496,130,2400,130,2304,130C2208,130,2112,130,2016,130C1920,130,1824,130,1728,130C1632,130,1536,130,1440,130C1344,130,1248,130,1152,130C1056,130,960,130,864,130C768,130,672,130,576,130C480,130,384,130,288,130C192,130,96,130,48,130L0,130Z"/></svg>