<?xml version="1.0" standalone="no"?>
<svg xmlns:xlink="http://www.w3.org/1999/xlink" id="wave" style="transform:rotate(0deg); transition: 0.3s" viewBox="0 0 1440 330" version="1.1" xmlns="http://www.w3.org/2000/svg"><defs><linearGradient id="sw-gradient-0" x1="0" x2="0" y1="1" y2="0"><stop stop-color="rgba(250, 235, 215, 1)" offset="0%"/><stop stop-color="rgba(250, 235, 215, 1)" offset="100%"/></linearGradient></defs><path style="transform:translate(0, 0px); opacity:1" fill="url(#sw-gradient-0)" d="M0,165L48,143C96,121,192,77,288,55C384,33,480,33,576,71.5C672,110,768,187,864,192.5C960,198,1056,132,1152,121C1248,110,1344,154,1440,187C1536,220,1632,242,1728,236.5C1824,231,1920,198,2016,187C2112,176,2208,187,2304,209C2400,231,2496,264,2592,231C2688,198,2784,99,2880,49.5C2976,0,3072,0,3168,5.5C3264,11,3360,22,3456,55C3552,88,3648,143,3744,154C3840,165,3936,132,4032,115.5C4128,99,4224,99,4320,121C4416,143,4512,187,4608,192.5C4704,198,4800,165,4896,176C4992,187,5088,242,5184,220C5280,198,5376,99,5472,82.5C5568,66,5664,132,5760,170.5C5856,209,5952,220,6048,209C6144,198,6240,165,6336,148.5C6432,132,6528,132,6624,121C6720,110,6816,88,6864,77L6912,66L6912,330L6864,330C6816,330,6720,330,6624,330C6528,330,6432,330,6336,330C6240,330,6144,330,6048,330C5952,330,5856,330,5760,330C5664,330,5568,330,5472,330C5376,330,5280,330,5184,330C5088,330,4992,330,4896,330C4800,330,4704,330,4608,330C4512,330,4416,330,4320,330C4224,330,4128,330,4032,330C3936,330,3840,330,3744,330C3648,330,3552,330,3456,330C3360,330,3264,330,3168,330C3072,330,2976,330,2880,330C2784,330,2688,330,2592,330C2496,330,2400,330,2304,330C2208,330,2112,330,2016,330C1920,330,1824,330,1728,330C1632,330,1536,330,1440,330C1344,330,1248,330,1152,330C1056,330,960,330,864,330C768,330,672,330,576,330C480,330,384,330,288,330C192,330,96,330,48,330L0,330Z"/></svg>