<?xml version="1.0" standalone="no"?>
<svg xmlns:xlink="http://www.w3.org/1999/xlink" id="wave" style="transform:rotate(0deg); transition: 0.3s" viewBox="0 0 1440 120" version="1.1" xmlns="http://www.w3.org/2000/svg"><defs><linearGradient id="sw-gradient-0" x1="0" x2="0" y1="1" y2="0"><stop stop-color="rgba(250, 235, 215, 1)" offset="0%"/><stop stop-color="rgba(250, 235, 215, 1)" offset="100%"/></linearGradient></defs><path style="transform:translate(0, 0px); opacity:1" fill="url(#sw-gradient-0)" d="M0,60L48,52C96,44,192,28,288,20C384,12,480,12,576,26C672,40,768,68,864,70C960,72,1056,48,1152,44C1248,40,1344,56,1440,68C1536,80,1632,88,1728,86C1824,84,1920,72,2016,68C2112,64,2208,68,2304,76C2400,84,2496,96,2592,84C2688,72,2784,36,2880,18C2976,0,3072,0,3168,2C3264,4,3360,8,3456,20C3552,32,3648,52,3744,56C3840,60,3936,48,4032,42C4128,36,4224,36,4320,44C4416,52,4512,68,4608,70C4704,72,4800,60,4896,64C4992,68,5088,88,5184,80C5280,72,5376,36,5472,30C5568,24,5664,48,5760,62C5856,76,5952,80,6048,76C6144,72,6240,60,6336,54C6432,48,6528,48,6624,44C6720,40,6816,32,6864,28L6912,24L6912,120L6864,120C6816,120,6720,120,6624,120C6528,120,6432,120,6336,120C6240,120,6144,120,6048,120C5952,120,5856,120,5760,120C5664,120,5568,120,5472,120C5376,120,5280,120,5184,120C5088,120,4992,120,4896,120C4800,120,4704,120,4608,120C4512,120,4416,120,4320,120C4224,120,4128,120,4032,120C3936,120,3840,120,3744,120C3648,120,3552,120,3456,120C3360,120,3264,120,3168,120C3072,120,2976,120,2880,120C2784,120,2688,120,2592,120C2496,120,2400,120,2304,120C2208,120,2112,120,2016,120C1920,120,1824,120,1728,120C1632,120,1536,120,1440,120C1344,120,1248,120,1152,120C1056,120,960,120,864,120C768,120,672,120,576,120C480,120,384,120,288,120C192,120,96,120,48,120L0,120Z"/></svg>